<svg xmlns:rdf="http://www.w3.org/1999/02/22-rdf-syntax-ns#" xmlns="http://www.w3.org/2000/svg" height="734pt" viewBox="0 0 1280.000000 734.000000" width="1.28e3pt" version="1.0" xmlns:cc="http://creativecommons.org/ns#" xmlns:dc="http://purl.org/dc/elements/1.1/" preserveAspectRatio="xMidYMid meet">
<path d="m84.5 395c-5.8 2.3-7.7 3.9-9.6 8-2.6 5.9-2.4 13 0.6 19.5 4.8 10.2 4.4 13.7-2.7 23-3.7 5-4.2 5.3-7.2 4.8-2.8-0.5-4.4 0.1-10.3 4.1-3.9 2.7-9.2 7.2-11.7 10-2.6 2.9-8.3 8.2-12.7 11.9-9.9 8.3-16.9 16.6-16.9 20.2 0 4.1 11.9 11.7 26.7 17.1 3.4 1.3 6.7 2.9 7.3 3.6 0.5 0.6 1.5 3.6 2 6.6 0.6 3 1.9 6.6 3 8.1 2.6 3.6 2.5 6-0.5 8.8-4.5 4.2-5.8 9.7-5.3 21.7 0.4 8.5 0.9 11.7 2.6 15 1.2 2.3 2.2 5 2.2 6 0 0.9 1.1 3.3 2.5 5.3 2.3 3.3 2.4 4.1 1.6 8.6-0.5 2.7-1.3 10.3-1.7 16.8-0.8 13.5-1.9 15.6-7.8 15.6-1.9 0-4.4 0.8-5.7 1.9-2 1.6-2.4 3-3 12.7-0.3 6-1.2 12.2-1.8 13.9-3.4 8.5-8.1 16.9-14 25-3.7 4.9-7.5 10.3-8.5 11.9s-4.5 5.8-7.7 9.2c-8.5 9.1-8 10.9 4.3 18 4.6 2.6 9.7 5.9 11.5 7.5 2 1.7 4.9 3 7.7 3.4 8.9 1.4 13.3-2.2 5.9-4.5-3.7-1.2-9.3-5.5-9.3-7.2 0-0.5-1.4-3.8-3-7.3-3-6.3-3-6.6-1.4-9.7 0.9-1.8 7.3-8.7 14.2-15.3 6.8-6.6 15.2-15.6 18.5-20s8.4-10.5 11.3-13.6c2.8-3 6.3-7.8 7.8-10.6 1.4-2.9 2.9-5.4 3.4-5.7s4.4-0.9 8.8-1.5c9.1-1.1 29.1-6.5 34.6-9.2 4.1-2.1 9.4-8 10.3-11.6 1.4-5.6-6.7-16.8-26-35.8-5.6-5.5-10.4-10.8-10.8-11.8-0.4-0.9 0.1-5.2 1-9.5 1.3-6.4 1.4-8.7 0.4-13.5-0.7-3.1-0.9-6.2-0.6-6.8 0.4-0.5 1.7-5.8 2.9-11.7l2.2-10.7 5.2-3.5c3-2 7.2-6.3 9.9-10 2.6-3.6 7.1-8.8 10-11.5 4.9-4.7 5.3-5.4 5.3-9.7 0-2.6-0.3-5.3-0.6-6.2-0.8-2.2-8.1-4.1-9.9-2.6-1.6 1.4-4.1 8-5 13.2-0.6 4.1-4.8 9.8-7.1 9.8-1.7 0-1.5 1.9-1.7-18.6-0.2-15.2-0.4-17.4-2.1-19.2-1-1.2-2.8-2.2-3.9-2.4-3.2-0.4-5.1-4.7-4.3-9.2 0.9-4.9 3.7-7.6 8-7.6 4.2 0 5.3-1.4 6.5-7.6 0.5-2.7 1.4-6.2 2-7.7 0.9-2.2 0.7-3.5-0.9-6.5-1.1-2-2-4.8-2-6.3 0-4.8-3.1-11.8-6.6-14.9-3-2.6-4.2-3-9.2-2.9-3.1 0-7 0.6-8.7 1.2zm-40.1 94.3c0.9 2.4 0.7 8.7-0.4 10.4-0.8 1.2-1.5 0.9-4.5-2-1.9-1.8-3.5-3.9-3.5-4.6 0-1.1 5.4-5.1 7.1-5.3 0.4-0.1 1 0.6 1.3 1.5zm51.7 121c3.2 1.8 2.1 3-2.6 3-3.1 0-4.5-0.4-4.5-1.3 0-2.8 3.4-3.6 7.1-1.7z"/>
<path d="m391 395c-5.4 1.9-9.4 8.6-10.8 18.3-1.3 9.5-0.6 16.2 2 18.7 1.2 1.2 1.8 2.9 1.6 4.5-0.2 2.2-1.7 3.4-8.3 6.9-4.4 2.3-11.1 5.4-14.8 6.9-8.6 3.3-11.6 6.9-20.1 23.6-10.1 20-13 29.9-10.6 36.3 1.7 4.4 10.6 7.8 22 8.5l9.4 0.5 1.2 5.5c0.7 3 1.8 6.9 2.5 8.6 1.1 2.7 1 3.6-0.8 7-1.1 2.2-2.3 6-2.7 8.5-0.9 6 1.9 35.1 3.7 38.6 0.8 1.6 1.8 4.8 2.1 7.3 1.7 11.4 8 39 9.8 43.2 2.8 6.2 5.1 8.2 9.4 8.1 2.7-0.1 3.8 0.5 5.1 2.5 0.9 1.5 2.8 3.9 4.1 5.4l2.5 2.7-0.5 17.9c-0.4 17.1-0.6 18.2-3 22.4-1.8 2.9-3 7.2-3.8 12.8-0.7 4.7-1.8 9.5-2.6 10.7-2.2 3.4-1.7 5.9 1.6 8.7 3.7 3 10.8 5.2 12.9 3.9 3.1-2 6.1-12.8 6.2-22.5 0.1-6.8 0.7-11.3 2.5-16.8 1.3-4.1 4.2-13.2 6.5-20.2l4-12.8-0.7-20.8-0.7-20.8 3.8-10.9c2.9-8.3 4.6-11.7 6.9-13.6l3.1-2.7 0.1-12.3c0.3-22.8-2.1-47.9-4.7-47.9-0.6 0-0.2-9.9 0.6-14.8 0.5-2.6 1-3.3 2.3-2.8 13.7 4.5 20 2.6 23.7-7.1 1.6-4.1 1.7-5.4 0.6-10.7-0.7-3.4-2.5-9.3-4-13.1-1.6-3.9-3.3-9.9-3.9-13.4-2-11.2-7.3-17.6-16.5-20.2-4.5-1.2-20.5-8.7-21.2-9.9-0.3-0.5-0.3-3.2 0.1-5.9 0.4-3.4 1.2-5.1 2.3-5.4 1-0.2 2.3-2.3 3-4.7 1.1-3.9 1.1-4.5-0.7-6.9-1.1-1.5-2.3-4.5-2.6-6.7-0.4-2.1-1.7-5.7-2.9-7.8-3.5-6.3-12.7-9.7-19.7-7.3zm-31.1 101c1.5 8 1.4 9.6-0.6 9.6-1.7 0-10.3-4.7-10.3-5.6 0-2.6 7.9-11.9 9.1-10.7 0.3 0.5 1.1 3.5 1.8 6.7zm75.6-2.4c0.8 1.6 1.5 4 1.5 5.5 0 2-0.5 2.5-2.4 2.5-3.3 0-3.9-1.3-3.1-6.6 0.7-5.1 1.9-5.6 4-1.4z"/>
<path d="m814 396c-5.2 3.5-7.9 8.2-7.9 13.8 0 2.7-0.4 4.9-0.9 4.9-1.2 0-0.1 8.1 1.3 10 3.5 4.4 4.9 13.7 2.4 15.8-0.7 0.5-5.9 3.3-11.5 6.1s-11.3 6.5-12.7 8.1c-2.7 3.2-5.4 9.8-8.2 20-0.9 3.6-3 8.4-4.6 10.7-2.2 3.3-2.7 4.7-1.9 6.1 0.7 1.3 0.5 3.2-0.6 6.3-2 5.9-2 19.7 0.2 28.4 1.2 4.9 1.5 8.8 1 13.1-0.6 6-0.5 6.2 2.2 8.2 1.6 1.1 4.2 2.4 5.9 2.8 1.6 0.4 3.9 1.4 5.1 2.1 3 2 5 0.7 2.8-1.7-1.5-1.7-1.5-2 0-4.3 1.6-2.5 0.7-4.5-1.5-3.2-0.5 0.3-1 0.2-1-0.4 0-0.5-0.3-1.7-0.7-2.7-0.5-1.5-0.1-1.6 4-1 2.6 0.4 4.7 0.4 4.7 0.1 0-1.8-3.4-6.6-6.2-8.8l-3.2-2.6 1.7-5.4c0.9-2.9 1.7-7.4 1.7-9.9 0-5 3.8-13.3 6.1-13.3 1 0 1.6 1.9 2.1 7 0.9 10 2.8 57.7 2.8 73.1 0 12 0.3 14.3 4.1 29 2.2 8.7 4.9 19 5.9 22.9 0.9 3.8 2.4 8.6 3.2 10.5 1.2 2.8 1.5 8.1 1.3 27.5-0.1 13.2-0.7 26-1.2 28.4-1.6 6.7-8.9 12.7-16.1 13.4-3 0.3-5.5 0.7-5.7 0.9-0.1 0.2-0.5 2.2-0.9 4.6-0.6 4-0.4 4.6 2.6 7.6 2.6 2.5 4.8 3.5 9.8 4.5 3.6 0.7 7.5 1.9 8.7 2.7 1.4 0.9 4.9 1.4 9.1 1.4 9.8 0 10.6-1.1 9.3-12.1-1.9-16.1-1.5-26.5 1.4-36.4 1.5-5 3.5-11.3 4.6-14 1-2.8 1.9-6 1.9-7.3 0-1.2 0.4-2.2 0.9-2.2 2.1 0 12.8 7.1 16.5 10.9l3.9 4 0.6 16.3 0.6 16.3 3.4 0.3c2.6 0.3 4-0.3 6.3-2.5 5.3-5 7.6-10.1 8.3-18.7 0.7-7.5 0.9-7.9 4.1-9.8 3.3-1.9 3.4-2.2 3.4-8.2 0-9-1.5-10.7-9.3-10.3-3.4 0.1-6.5 0.6-7 1.2-0.9 1.2-8.3-6.7-13.2-14-4.4-6.6-8.1-10-14.6-13.4l-5.4-2.8-0.3-5.7c-0.3-5.2 0.1-6.3 4.7-14.4 2.8-4.8 6-11 7.2-13.9 1.5-3.6 2.7-5.3 4.2-5.5s3.2-2.4 5.6-7.3c3.1-6.1 3.6-8.3 4.1-16.8 0.5-8.7 0.8-10.1 2.8-11.5 2.1-1.6 2.2-2.1 1.2-7.1-0.6-3.5-0.6-5.9 0-7.1 0.6-1 1-2.6 1-3.5 0-0.8 3.6-5.7 8.1-10.8s9-11 10-13.2c2.4-5.1 2.6-20.5 0.4-25.8-0.8-2-1.5-6.1-1.5-9.2 0-8-5-19.4-10.5-24.3-3.5-3-14.5-9-32.5-17.6-2.1-1-2.5-1.9-2.8-6.6-0.2-4 0.1-5.6 1.2-6.2s1.6-2.4 1.6-5.9c0-3.1-0.4-4.8-1-4.4s-1-0.8-1-3c0-4.2-1.2-6.9-4.9-10.8-5.5-6.1-11.5-7.2-17.2-3.4zm51 106c1.3 1.6 0.6 4.7-1.5 6.5-1.3 1.1-1.5 0.6-1.5-3.4 0-4.7 0.9-5.7 3-3.1z"/>
<path d="m1.19e3 394c-0.5 0.2-2.2 0.6-3.6 0.9-2.8 0.6-4.9 4.6-6.9 12.9-1.4 6.3 0.2 18.9 3.5 26.2 3.5 8 3.9 10.8 1.8 12.7-1 0.9-6.5 4.5-12.2 8-11.9 7.2-14.2 10.3-16.1 21.8-0.6 3.6-1.7 10.5-2.5 15.5-0.8 4.9-2 11.5-2.6 14.6-0.7 3.1-0.9 7.2-0.5 9.2 0.8 4.1 5.5 9.7 8.3 9.7 3.3 0 10.3-7.2 10.3-10.6 0.1-1.6 0.7-4.3 1.5-5.9 1.2-2.6 1.3-2.7 1.4-0.8 0.1 1.2 0.8 4.8 1.6 7.9s1.2 6.7 0.9 7.8c-0.3 1.2 0.6 5.3 2 9.1 4.1 11.6 4.6 14.8 2.9 21.3-2.5 9.5-1 22.9 4.2 38.6 2.4 7.1 5.2 14.1 6.3 15.5 1 1.4 2.9 5.7 4.2 9.6 1.2 3.8 3.7 10.6 5.5 15s3.5 10.4 3.9 13.4 2.3 9.5 4.1 14.3c1.9 4.8 4 10.7 4.6 13.1 1.7 6 2 46 0.4 50.9-1.1 3.4-1 3.9 1.1 5.9s3.6 2.2 14.5 2.5l12.2 0.3 3.1-3.3c6-6.3 11.6-13.5 11.6-14.9 0-0.8-1.1-3.1-2.5-5.1s-2.5-4-2.5-4.3-1.8-3-4-5.8c-5.8-7.5-9-16.2-10.1-27.3-1-9.3-3.6-17.9-7.8-25.7-1.1-2.2-2.1-5.3-2.1-7 0-1.6-0.7-8.7-1.7-15.6l-1.6-12.6 2.9-6.8c1.9-4.7 3.7-7.4 5.6-8.4 1.6-0.9 2.8-2.5 2.8-3.6 0-1.2 2-6 4.4-10.7 4.4-8.5 9.6-24.7 9.6-29.9 0-1.4 1.2-4.1 2.6-6s3.4-5.4 4.5-7.9c3.3-7.6 7-14.3 10.9-19.5 6-8.1 8.3-13.4 8.4-19.1 0.1-4.3-0.8-6.9-5.6-16.6-3.2-6.3-5.8-12.2-5.8-13.2 0-2.7-4.4-8.7-10.7-14.7-5.1-4.9-6.8-5.9-11.9-6.9-3.2-0.7-7.6-2.1-9.6-3.1-2.1-1.1-6.1-2.4-9-3s-6.5-1.9-8-2.7c-2.6-1.5-2.8-2.1-2.8-8.2 0-3.6 0.7-8.3 1.4-10.5 1.2-3.4 1.2-4.3 0.1-6.1-0.7-1.2-1.7-3.9-2.1-6-1.2-6.8-2.9-9-9.8-12.3-6-2.9-8.5-3.5-11.1-2.6zm62.8 98.8c2.7 2.5 4.7 5.3 4.7 6.4 0 5.5-7.1 22.5-8.7 20.9-0.7-0.6-2-11.4-2.9-23.4-0.8-9.9-0.1-10.2 6.9-3.9z"/>
</svg>
